<svg height="482pt" viewBox="-41 0 482 482.55711" width="482pt" xmlns="http://www.w3.org/2000/svg"><path d="m362.585938 156.492188-2.933594-48.496094-40.578125-26.789063-26.796875-40.578125-48.523438-2.945312-43.476562-21.6875-43.503906 21.6875-48.496094 2.9375-26.792969 40.574218-40.578125 26.800782-2.941406 48.519531-21.6875 43.480469 21.6875 43.503906 2.933594 48.511719 40.578124 26.777343 26.800782 40.574219 48.519531 2.945313 43.480469 21.6875 43.496094-21.6875 48.519531-2.933594 26.773437-40.578125 40.578125-26.800781 2.941407-48.519532 21.691406-43.480468zm-162.308594 163.503906c-66.277344 0-120-53.726563-120-120 0-66.273438 53.722656-120 120-120 66.273437 0 120 53.726562 120 120 0 66.273437-53.726563 120-120 120zm0 0" fill="#9bc9ff"/><path d="m320.277344 199.996094c0 66.273437-53.726563 120-120 120-66.277344 0-120-53.726563-120-120 0-66.273438 53.722656-120 120-120 66.273437 0 120 53.726562 120 120zm0 0" fill="#9bc9ff"/><g fill="#1e81ce"><path d="m232.277344 231.996094h-24v-96c-.003906-3.234375-1.953125-6.152344-4.941406-7.386719-2.988282-1.238281-6.429688-.554687-8.714844 1.730469l-32 32c-3.035156 3.140625-2.988282 8.128906.097656 11.214844 3.085938 3.085937 8.074219 3.128906 11.214844.097656l18.34375-18.34375v76.6875h-24c-4.421875 0-8 3.582031-8 8 0 4.417968 3.578125 8 8 8h64c4.417968 0 8-3.582032 8-8 0-4.417969-3.582032-8-8-8zm0 0"/><path d="m84.941406 241.238281c-3.566406 0-6.703125-2.359375-7.691406-5.785156-14.996094-52.214844 4.597656-108.210937 48.882812-139.679687 44.28125-31.46875 103.605469-31.554688 147.984376-.214844 44.375 31.339844 64.132812 87.277344 49.285156 139.535156-1.207032 4.25-5.632813 6.714844-9.882813 5.507812-4.25-1.207031-6.714843-5.632812-5.507812-9.882812 12.992187-45.726562-4.296875-94.671875-43.125-122.09375s-90.738281-27.347656-129.488281.1875c-38.746094 27.535156-55.894532 76.527344-42.769532 122.214844 1.21875 4.246094-1.234375 8.679687-5.480468 9.898437-.71875.207031-1.460938.3125-2.207032.3125zm0 0"/><path d="m285.125 292.84375c-2.121094 0-4.15625-.84375-5.65625-2.34375l-11.3125-11.304688c-3.125-3.125-3.125-8.191406 0-11.316406 3.125-3.128906 8.195312-3.128906 11.320312 0l11.304688 11.316406c2.285156 2.289063 2.96875 5.730469 1.730469 8.71875-1.238281 2.988282-4.152344 4.9375-7.386719 4.9375zm0 0"/><path d="m304.1875 267.996094c-1.40625.003906-2.785156-.367188-4-1.070313l-13.847656-8c-3.792969-2.226562-5.082032-7.09375-2.882813-10.902343 2.199219-3.808594 7.058594-5.128907 10.882813-2.953126l13.847656 8c3.136719 1.808594 4.664062 5.5 3.726562 8.996094-.9375 3.5-4.105468 5.929688-7.726562 5.929688zm0 0"/><path d="m115.425781 292.84375c-3.234375 0-6.148437-1.949219-7.386719-4.9375-1.238281-2.988281-.554687-6.429688 1.734376-8.71875l11.300781-11.308594c3.128906-3.128906 8.195312-3.128906 11.320312 0 3.128907 3.125 3.128907 8.191406 0 11.316406l-11.320312 11.304688c-1.496094 1.5-3.527344 2.34375-5.648438 2.34375zm0 0"/><path d="m96.363281 267.996094c-3.621093 0-6.789062-2.429688-7.726562-5.929688-.9375-3.496094.589843-7.1875 3.726562-8.996094l13.847657-8c2.476562-1.453124 5.542968-1.464843 8.03125-.035156 2.488281 1.429688 4.023437 4.082032 4.015624 6.953125-.007812 2.871094-1.550781 5.519531-4.046874 6.9375l-13.847657 8c-1.214843.703125-2.59375 1.074219-4 1.070313zm0 0"/><path d="m398.210938 194.636719-34.671876-38.398438 10.855469-50.585937c.863281-4.015625-1.457031-8.035156-5.367187-9.296875l-49.253906-15.855469-15.851563-49.253906c-1.257813-3.914063-5.277344-6.234375-9.292969-5.367188l-50.59375 10.855469-38.398437-34.671875c-3.046875-2.75-7.675781-2.75-10.722657 0l-38.398437 34.671875-50.582031-10.855469c-4.019532-.867187-8.039063 1.453125-9.296875 5.367188l-15.855469 49.246094-49.257812 15.855468c-3.910157 1.261719-6.230469 5.28125-5.367188 9.296875l10.855469 50.59375-34.671875 38.398438c-2.75 3.046875-2.75 7.675781 0 10.71875l34.671875 38.402343-10.855469 50.582032c-.863281 4.019531 1.457031 8.039062 5.367188 9.296875l37.257812 12c-.910156.652343-1.667969 1.484375-2.234375 2.449219l-60.320313 104.472656c-1.621093 2.800781-1.390624 6.308594.582032 8.875 1.972656 2.570312 5.300781 3.695312 8.425781 2.851562l57.785156-15.519531 15.527344 57.863281c.839844 3.128906 3.476563 5.441406 6.6875 5.863282.347656.042968.695313.0625 1.042969.066406 2.855468 0 5.496094-1.527344 6.925781-4l60.082031-104.082032c.703125-1.308593 1.027344-2.789062.925782-4.269531l30.703124 27.726563c3.046876 2.746094 7.675782 2.746094 10.722657 0l30.703125-27.726563c-.101563 1.480469.222656 2.960938.929687 4.269531l60.078125 104.082032c1.429688 2.472656 4.070313 4 6.929688 4 .347656-.003906.691406-.023438 1.039062-.066406 3.210938-.421876 5.851563-2.734376 6.6875-5.863282l15.527344-57.863281 57.785156 15.519531c3.125.84375 6.453125-.28125 8.425782-2.851562 1.972656-2.566406 2.203124-6.074219.582031-8.875l-60.320313-104.480469c-.5625-.964844-1.320312-1.796875-2.222656-2.449219l37.246094-12c3.910156-1.261718 6.230468-5.277344 5.367187-9.296875l-10.855469-50.574219 34.671876-38.402343c2.75-3.042969 2.75-7.671875 0-10.71875zm-299.199219 259.199219-12.601563-46.949219c-.546875-2.054688-1.890625-3.800781-3.730468-4.863281-1.839844-1.0625-4.023438-1.347657-6.074219-.792969l-46.84375 12.589843 50.648437-87.742187c.839844-1.53125 1.144532-3.292969.875-5.015625l15.34375 47.6875c1.257813 3.910156 5.277344 6.230469 9.292969 5.367188l45.347656-9.726563c-.738281.578125-1.359375 1.285156-1.84375 2.085937zm271.792969-40-46.847657-12.605469c-2.050781-.554688-4.238281-.269531-6.078125.792969s-3.183594 2.808593-3.730468 4.863281l-12.601563 46.949219-50.398437-87.359376c-.484376-.800781-1.105469-1.507812-1.839844-2.085937l45.335937 9.726563c4.015625.863281 8.035157-1.457032 9.296875-5.367188l15.351563-47.703125c-.277344 1.726563.027343 3.496094.871093 5.03125zm-21.882813-177.757813c-1.71875 1.90625-2.417969 4.527344-1.878906 7.039063l10.183593 47.511718-46.269531 14.886719c-2.457031.789063-4.378906 2.714844-5.167969 5.167969l-14.890624 46.265625-47.503907-10.183594c-2.511719-.554687-5.136719.144531-7.039062 1.878906l-36.078125 32.570313-36.082032-32.570313c-1.46875-1.328125-3.378906-2.0625-5.359374-2.0625-.566407-.003906-1.128907.058594-1.679688.183594l-47.511719 10.183594-14.890625-46.273438c-.789062-2.453125-2.710937-4.378906-5.167968-5.167969l-46.261719-14.886718 10.183593-47.503906c.539063-2.511719-.160156-5.132813-1.878906-7.039063l-32.570312-36.082031 32.570312-36.078125c1.71875-1.910157 2.417969-4.527344 1.878906-7.039063l-10.183593-47.515625 46.269531-14.886719c2.457031-.789062 4.378906-2.710937 5.167969-5.167968l14.890625-46.261719 47.503906 10.183594c2.511719.558593 5.140625-.140625 7.039062-1.882813l36.082032-32.566406 36.078125 32.566406c1.898437 1.742188 4.527343 2.445313 7.039062 1.882813l47.511719-10.183594 14.890625 46.269531c.789063 2.457032 2.710937 4.378906 5.167969 5.167969l46.261718 14.890625-10.183593 47.503906c-.539063 2.511719.160156 5.128906 1.878906 7.039063l32.570313 36.078125zm0 0"/><path d="m234.914062 298.398438c-1.15625-4.25-5.53125-6.765626-9.785156-5.625-4.253906 1.136718-6.789062 5.5-5.667968 9.757812l4.144531 15.464844c.933593 3.496094 4.101562 5.925781 7.71875 5.929687.703125.003907 1.402343-.089843 2.078125-.273437 4.269531-1.144532 6.800781-5.53125 5.65625-9.800782zm0 0"/><path d="m259.203125 286.070312c-1.417969-2.496093-4.066406-4.039062-6.9375-4.046874-2.871094-.007813-5.523437 1.527343-6.953125 4.015624-1.429688 2.488282-1.417969 5.554688.035156 8.03125l8 13.847657c2.222656 3.792969 7.09375 5.082031 10.902344 2.882812s5.128906-7.0625 2.953125-10.882812zm0 0"/><path d="m175.476562 292.726562c-4.269531-1.144531-8.65625 1.386719-9.800781 5.65625l-4.144531 15.453126c-1.144531 4.269531 1.386719 8.65625 5.65625 9.800781.679688.183593 1.378906.277343 2.082031.273437 3.617188-.003906 6.78125-2.433594 7.71875-5.929687l4.144531-15.464844c1.136719-4.265625-1.394531-8.648437-5.65625-9.789063zm0 0"/><path d="m152.277344 283.140625c-3.828125-2.207031-8.71875-.898437-10.929688 2.929687l-8 13.847657c-1.453125 2.476562-1.464844 5.539062-.035156 8.03125 1.429688 2.488281 4.082031 4.019531 6.953125 4.015625 2.871094-.007813 5.519531-1.550782 6.9375-4.046875l8-13.847657c2.210937-3.828124.898437-8.71875-2.925781-10.929687zm0 0"/><path d="m200.277344 295.996094c-4.421875 0-8 3.582031-8 8v16c0 4.417968 3.578125 8 8 8 4.417968 0 8-3.582032 8-8v-16c0-4.417969-3.582032-8-8-8zm0 0"/></g></svg>